<?xml version="1.0" standalone="no"?>
<!DOCTYPE svg PUBLIC "-//W3C//DTD SVG 20010904//EN"
 "http://www.w3.org/TR/2001/REC-SVG-20010904/DTD/svg10.dtd">
<svg version="1.0" xmlns="http://www.w3.org/2000/svg"
 width="66.000000pt" height="66.000000pt" viewBox="0 0 66.000000 66.000000"
 preserveAspectRatio="xMidYMid meet">
<metadata>
Created by potrace 1.16, written by Peter Selinger 2001-2019
</metadata>
<g transform="translate(0.000000,66.000000) scale(0.100000,-0.100000)"
fill="#000000" stroke="none">
<path d="M367 642 c-10 -10 -17 -33 -17 -50 0 -61 66 -93 118 -56 28 20 31 83
4 107 -25 23 -85 22 -105 -1z"/>
<path d="M606 598 c-19 -35 -40 -76 -45 -91 -17 -44 -14 -330 3 -372 14 -33
14 -35 -5 -35 -10 0 -28 9 -39 20 -18 18 -20 33 -20 180 l0 160 -200 0 c-223
0 -245 -5 -280 -63 -11 -18 -20 -49 -20 -70 0 -52 45 -97 125 -125 33 -12 71
-28 85 -35 28 -15 38 -46 18 -58 -21 -14 -122 -10 -168 6 -23 8 -46 15 -51 15
-5 0 -9 -22 -9 -50 l0 -49 57 -17 c70 -20 174 -15 229 12 72 35 93 125 44 187
-13 16 -53 38 -103 57 -94 37 -107 45 -107 71 0 18 9 19 129 19 l129 0 4 -122
c7 -197 32 -229 186 -236 l92 -4 0 331 c0 203 -4 331 -10 331 -5 0 -25 -28
-44 -62z"/>
</g>
</svg>
